<?xml version="1.0" encoding="UTF-8" standalone="no"?>
<svg
   xmlns:dc="http://purl.org/dc/elements/1.1/"
   xmlns:cc="http://creativecommons.org/ns#"
   xmlns:rdf="http://www.w3.org/1999/02/22-rdf-syntax-ns#"
   xmlns:svg="http://www.w3.org/2000/svg"
   xmlns="http://www.w3.org/2000/svg"
   xmlns:xlink="http://www.w3.org/1999/xlink"
   version="1.1"
   id="Capa_1"
   x="0px"
   y="0px"
   viewBox="0 0 188.149 188.149"
   style="enable-background:new 0 0 188.149 188.149;"
   xml:space="preserve"><metadata
   id="metadata57"><rdf:RDF><cc:Work
       rdf:about=""><dc:format>image/svg+xml</dc:format><dc:type
         rdf:resource="http://purl.org/dc/dcmitype/StillImage" /><dc:title></dc:title></cc:Work></rdf:RDF></metadata><defs
   id="defs55" />
<g
   id="g20">
	<g
   id="g18">
		<defs
   id="defs3">
			<circle
   id="SVGID_1_"
   cx="94.074"
   cy="94.075"
   r="94.074" />
		</defs>
		<use
   xlink:href="#SVGID_1_"
   style="overflow:visible;fill:#E6E7E2;"
   id="use5" />
		<clipPath
   id="SVGID_2_">
			<use
   xlink:href="#SVGID_1_"
   style="overflow:visible;"
   id="use7" />
		</clipPath>
		<path
   style="clip-path:url(#SVGID_2_);fill:#b3b3b3"
   d="M126.708,153.946h-0.02c-2.041-1.545-4.178-2.919-6.429-4.159    c-0.058-0.038-0.115-0.076-0.191-0.095c-10.646-5.876-17.857-17.209-17.857-30.239l-16.121-0.077    c0,13.069-7.269,24.459-18.01,30.315c0,0-0.019,0-0.038,0.019c-2.271,1.24-4.445,2.633-6.506,4.159    c-13.355,9.94-21.997,25.832-21.997,43.766h109.07C148.61,179.74,140.006,163.885,126.708,153.946z"
   clip-path="url(#SVGID_2_)"
   id="path10" />
		<path
   style="clip-path:url(#SVGID_2_);fill:#999999"
   d="M148.609,197.629H39.538c0-17.934,8.642-33.826,21.997-43.766    c2.061-1.526,4.235-2.919,6.505-4.159c0.02-0.019,0.039-0.019,0.039-0.019c1.755-0.973,3.434-2.08,4.979-3.339    c5.342,5.476,12.802,8.872,21.063,8.872c8.242,0,15.683-3.396,21.024-8.853c1.526,1.259,3.187,2.366,4.922,3.32    c0.076,0.019,0.134,0.057,0.191,0.095c2.251,1.24,4.388,2.614,6.429,4.159h0.02C140.005,163.879,148.609,179.733,148.609,197.629z    "
   clip-path="url(#SVGID_2_)"
   id="path12" />
		<path
   style="fill:#b3b3b3"
   d="m 52.217,82.927 c 0,26.23082 25.437,50.465 41.858,50.465 16.419,0 41.858,-23.62897 41.858,-50.465 0,-26.836033 -17.94796,-43.399735 -41.858,-43.399735 -23.910043,0 -41.858,17.168914 -41.858,43.399735 z"
   clip-path="url(#SVGID_2_)"
   id="path14" />
		
	</g>
</g>
<g
   id="g22">
</g>
<g
   id="g24">
</g>
<g
   id="g26">
</g>
<g
   id="g28">
</g>
<g
   id="g30">
</g>
<g
   id="g32">
</g>
<g
   id="g34">
</g>
<g
   id="g36">
</g>
<g
   id="g38">
</g>
<g
   id="g40">
</g>
<g
   id="g42">
</g>
<g
   id="g44">
</g>
<g
   id="g46">
</g>
<g
   id="g48">
</g>
<g
   id="g50">
</g>
</svg>